# xmcd
#
# Track frame offsets: 
#        150
#        43075
#        81209
#        123657
#        133102
#        143987
#        153873
#        165395
#        174857
#        184534
#        194211
#        206664
#        217332
#        226966
#        241654
#        253338
#
# Disc length: 3504 seconds
#
# Revision: 0
# Processed by: cddbd v1.5.1PL0 Copyright (c) Steve Scherf et al.
# Submitted via: ExactAudioCopy v0.95a5
#
DISCID=ea0dae10
DTITLE=Linard Bardill - Lieder und Gschichte us em Rucksack vom Andrì 
DTITLE=CD2
DYEAR=1998
DGENRE=Easy Listening
TTITLE0=D'Reis in de Buch vo der Erde
TTITLE1=Uf em Grund vom See
TTITLE2=Der Alpufzug
TTITLE3=Der Summer isch verbii
TTITLE4=Der Fuchs im Hüenerstall
TTITLE5=Tutta nanna  tgu
TTITLE6=Sunne, guete Tag
TTITLE7=I muess go
TTITLE8=My Bonny is over the ocean
TTITLE9=Tears in my eyes
TTITLE10=D'Nacht kunnt durii
TTITLE11=Mamma, ich zeichne es Geld
TTITLE12=Es Huus uf em Hügel
TTITLE13=Uf em Grund vom See
TTITLE14=Früeligsmorge
TTITLE15=Der Winter isch verbii
EXTD=
EXTT0=
EXTT1=
EXTT2=
EXTT3=
EXTT4=
EXTT5=
EXTT6=
EXTT7=
EXTT8=
EXTT9=
EXTT10=
EXTT11=
EXTT12=
EXTT13=
EXTT14=
EXTT15=
PLAYORDER=
